<svg version="1.1" xmlns="http://www.w3.org/2000/svg" xmlns:xlink="http://www.w3.org/1999/xlink" viewBox="0 0 172 172"><g fill="none" fill-rule="nonzero" stroke="none" stroke-width="1" stroke-linecap="butt" stroke-linejoin="miter" stroke-miterlimit="10" stroke-dasharray="" stroke-dashoffset="0" font-family="none" font-weight="none" font-size="none" text-anchor="none" style="mix-blend-mode: normal"><path d="M0,172v-172h172v172z" fill="none"></path><g><path d="M23.15385,105.84615c0,-14.95805 5.22648,-28.69456 13.95251,-39.48458c8.87388,-10.97294 21.36703,-18.89883 35.66288,-21.96242v-13.93035v-13.93035l13.23077,-6.61538l13.23077,6.61538v13.93035v13.93035c14.29585,3.06358 26.789,10.98948 35.66288,21.96242c8.72602,10.79002 13.95251,24.52654 13.95251,39.48458l-32.52553,16.53846z" fill="#e4ebf8"></path><path d="M109.15385,9.92308c0,3.655 -2.96038,6.61538 -6.61538,6.61538c-2.45662,0 -28.29268,0 -33.07692,0c-3.65169,0 -6.61538,-2.96369 -6.61538,-6.61538c0,-3.655 2.96038,-6.61538 6.61538,-6.61538h33.07692c3.65169,0 6.61538,2.96369 6.61538,6.61538z" fill="#c7d9ff"></path><path d="M39.26892,102.84806c-1.00488,0 -1.81923,-0.81303 -1.81923,-1.81758v-0.00364c0,-0.06053 0.00298,-0.12106 0.00893,-0.18126c0.94931,-9.4772 4.66682,-18.41888 10.75165,-25.85755c0.63607,-0.77797 1.78185,-0.89242 2.56015,-0.25602c0.77764,0.63607 0.89242,1.78218 0.25635,2.55982c-5.62605,6.87802 -9.06506,15.14063 -9.94557,23.89675c-0.08203,0.92913 -0.86198,1.65947 -1.81228,1.65947z" fill="#c7d9ff"></path><path d="M131.5026,95.90356c-0.81204,0 -1.55164,-0.54709 -1.76168,-1.37038c-0.11378,-0.44588 -0.24014,-0.90598 -0.38667,-1.40775c-1.67865,-5.76167 -4.49846,-11.08805 -8.38103,-15.83392c-6.48109,-7.9249 -15.51969,-13.46032 -25.45104,-15.5875c-0.98238,-0.21037 -1.6082,-1.17754 -1.39783,-2.15959c0.21037,-0.98238 1.17853,-1.60688 2.15992,-1.39816c10.73578,2.29918 20.50405,8.28015 27.50545,16.84178c4.19415,5.12593 7.24153,10.88562 9.05712,17.1183c0.15811,0.54081 0.29571,1.04093 0.41975,1.52815c0.24808,0.97345 -0.3397,1.96411 -1.31348,2.21218c-0.1505,0.0387 -0.30166,0.05689 -0.45051,0.05689z" fill="#c7d9ff"></path><path d="M39.26892,101.02685c15.63546,-3.74431 38.62062,-6.59885 50.03877,4.81931c23.15385,23.15385 59.53846,0 59.53846,0c0,34.70762 -28.13854,62.84615 -62.84615,62.84615c-34.70762,0 -62.84615,-28.13854 -62.84615,-62.84615c0,0 6.73446,-2.57008 16.11508,-4.81931z" fill="#3cd044"></path><circle cx="270" cy="430" transform="scale(0.33077,0.33077)" r="30" fill="#ffffff"></circle><circle cx="160" cy="370" transform="scale(0.33077,0.33077)" r="20" fill="#ffffff"></circle></g></g></svg>